# xmcd
#
# Track frame offsets: 
#        150
#        10565
#        18875
#        27220
#        36337
#        48829
#        57316
#        69615
#        77765
#        86603
#        98386
#        109089
#        119327
#        128328
#        137681
#        148949
#        157857
#        168018
#        179305
#        188634
#        198125
#        207195
#        220275
#        228231
#        239483
#
# Disc length: 3341 seconds
#
# Revision: 2
# Processed by: cddbd v1.5.2PL0 Copyright (c) Steve Scherf et al.
# Submitted via: ExactAudioCopyFreeDBPlugin 1.0
#
DISCID=3d0d0b19
DTITLE=Various Artist - Rockabilly Rumble [CD1)
DYEAR=1900
DGENRE=Rockabilly
TTITLE0=Bob Luman - Red Cadillac and A Black Moustache
TTITLE1=Slick Slavin - Speed Crazy
TTITLE2=Hal Willis - My Pink Cadillac
TTITLE3=Gene Vincent - Race With The Devil
TTITLE4=Johnny Bond - Hot Rod Jalopy
TTITLE5=Johnny Burnette - Tear It Up
TTITLE6=Billy Adams - You Heard Me Knocking
TTITLE7=George Jones - Heartbreak Hotel
TTITLE8=Eddie Cochran - Summertime Blues
TTITLE9=Carl Mann - Pretend
TTITLE10=Hank Snow - Music Makin' Mama From Memphis
TTITLE11=Don Woody - Braking Up The Wrong Tree
TTITLE12=Sanford Clark - Usta Be My Baby
TTITLE13=Johnnie and Jack - Move It On over
TTITLE14=Buddy Covelle - Lorraine
TTITLE15=Keith Courval - Trapped Love
TTITLE16=Charlie Feathers - Bottle To The Baby
TTITLE17=Little Jimmy Dickens - (I Got) A Hole In My Pocket
TTITLE18=Andy Starr - One More Time
TTITLE19=Marvin Rainwater - Hot And Cold
TTITLE20=Jackie Cray - Maybelle
TTITLE21=Ray Harris - Green Back Dollar
TTITLE22=Curtis Gordon - Draggin´
TTITLE23=Marty Robbins - Maybeline
TTITLE24=Roy Hall - See You Later Alligator
EXTD=
EXTT0=
EXTT1=
EXTT2=
EXTT3=
EXTT4=
EXTT5=
EXTT6=
EXTT7=
EXTT8=
EXTT9=
EXTT10=
EXTT11=
EXTT12=
EXTT13=
EXTT14=
EXTT15=
EXTT16=
EXTT17=
EXTT18=
EXTT19=
EXTT20=
EXTT21=
EXTT22=
EXTT23=
EXTT24=
PLAYORDER=
